PathFileType	4	(X/Y/Z)	/Users/mathieubourgeois/Desktop/Analyse/Traitement/Sujet_07/Data/Transformed_Sujet_07_velo_80.trc
DataRate	CameraRate	NumFrames	NumMarkers	Units	OrigDataRate	OrigDataStartFrame	OrigNumFrames
120.000000	120.000000	4	36	mm	120.000000	233	1868
Frame#	Time	RFHD			LFHD			RBHD			LBHD			C7			CLAV			RSHO			LSHO			STRN			T10			RBWT			LBWT			RFWT			LFWT			RKNI			LKNI			RKNE			LKNE			LANI			RANI			LANE			RANE			LTOE			RTOE			LHEE			RHEE			RHUM			LHUM			RRAD			LRAD			RWRA			RWRB			LWRA			LWRB			LCAR			RCAR			
		X1	Y1	Z1	X2	Y2	Z2	X3	Y3	Z3	X4	Y4	Z4	X5	Y5	Z5	X6	Y6	Z6	X7	Y7	Z7	X8	Y8	Z8	X9	Y9	Z9	X10	Y10	Z10	X11	Y11	Z11	X12	Y12	Z12	X13	Y13	Z13	X14	Y14	Z14	X15	Y15	Z15	X16	Y16	Z16	X17	Y17	Z17	X18	Y18	Z18	X19	Y19	Z19	X20	Y20	Z20	X21	Y21	Z21	X22	Y22	Z22	X23	Y23	Z23	X24	Y24	Z24	X25	Y25	Z25	X26	Y26	Z26	X27	Y27	Z27	X28	Y28	Z28	X29	Y29	Z29	X30	Y30	Z30	X31	Y31	Z31	X32	Y32	Z32	X33	Y33	Z33	X34	Y34	Z34	X35	Y35	Z35	X36	Y36	Z36	

234	1.941666666666667	271.0608520507812	1362.569702148438	127.3466110229492	276.217041015625	1343.292602539062	-3.774232387542773	211.4538879394531	1502.308959960938	121.8459701538085	212.4006042480469	1497.388061523438	-24.35465431213386	58.77303314208984	1486.667236328125	42.40481185913077	39.07479858398437	1351.176879882812	49.54082870483391	67.2677307128906	1432.931640625	193.0287933349609	97.77986907958986	1456.364135742188	-77.8141174316407	-122.6884231567383	1280.394653320312	30.16656684875479	-189.5403289794922	1509.645751953125	25.22388839721668	-442.2529907226562	1301.84814453125	97.39098358154283	-442.8943176269531	1293.777099609375	-16.40378761291517	-284.0925598144531	1214.153930664062	147.2328338623046	-288.2000122070312	1206.576538085938	-67.11283111572276	-82.2709197998047	792.4746704101562	125.0095214843749	-92.06267547607422	761.5399169921875	-34.06706237792975	-79.52323150634768	854.4085083007812	229.2596893310546	-79.1322555541992	814.1728515625	-141.1898345947266	-113.1743545532227	378.0890197753906	-46.69898223876957	-340.7466735839844	515.3734741210938	124.8576736450195	-125.5857543945312	364.8578796386719	-135.6142883300782	-366.8138122558594	518.8978881835938	210.8589477539062	73.59259033203126	295.6012573242188	-92.73836517333984	-258.7787170410156	331.1590881347656	182.8228454589843	-186.8042449951172	352.969970703125	-100.6678848266602	-422.2337951660156	539.6475219726562	169.2798461914062	80.67498779296872	1102.372680664062	225.7981414794921	96.67343902587892	1123.183227539062	-143.3706665039063	123.8872985839843	1128.347045898438	271.3453369140624	159.0346832275391	1139.005126953125	-162.4466552734375	320.9473266601562	937.1077270507812	249.4639434814453	279.6400146484374	903.5714721679688	302.6571350097656	315.7368469238281	930.0899047851562	-105.6110153198242	276.0550537109375	887.1994018554688	-155.6332702636719	370.6684265136719	914.4928588867188	-194.7690734863281	369.1357116699218	927.8209838867188	339.79833984375	
235	1.95	271.1006774902344	1362.53173828125	129.1978302001953	276.1932678222656	1343.185791015625	-1.899176478385974	211.7064666748047	1502.345458984375	123.6253128051757	212.6245880126953	1497.359008789062	-22.57814025878913	58.98065948486327	1486.9111328125	44.15403747558585	39.25526428222656	1351.530517578125	51.15772247314445	67.0327224731445	1432.982177734375	194.8071289062499	98.4696731567383	1456.498901367188	-76.04164123535163	-122.3721313476562	1280.661743164062	30.74894523620596	-189.2582092285156	1509.890747070312	25.36098670959461	-442.1295776367188	1302.112060546875	96.04553985595689	-442.0510864257812	1293.348266601562	-17.78008079528822	-284.064208984375	1214.92626953125	147.2358093261718	-287.1283569335938	1205.8271484375	-67.02494049072276	-75.11742401123048	801.6942138671875	125.3711166381835	-100.5276947021484	751.2525024414062	-33.61457061767584	-72.81702423095706	863.780029296875	229.8131408691406	-87.17332458496092	803.9257202148438	-141.0128784179688	-117.1633453369141	367.4590759277344	-46.77248764038089	-336.3155517578125	527.2991333007812	125.4061126708984	-129.8001403808593	354.2503356933594	-135.6522064208985	-362.1828002929688	530.9136352539062	211.4132537841796	68.39987945556642	283.1535339355469	-93.73833465576172	-254.3461151123047	343.1954650878906	183.2311096191406	-190.7885437011719	342.6996154785156	-100.496696472168	-417.6961059570312	551.81103515625	170.0885467529296	80.86659240722653	1102.467529296875	226.361831665039	97.16475677490236	1123.425659179688	-142.8406677246094	124.040657043457	1128.307861328125	271.9484863281249	159.5918426513672	1139.246948242188	-161.8093414306641	321.0425720214843	937.0827026367188	249.5850524902343	279.7952575683593	903.496826171875	302.8339233398438	315.9440307617188	929.9825439453125	-105.474838256836	275.8665161132812	886.8881225585938	-155.9520568847657	370.8001708984375	914.472412109375	-194.6937561035156	369.3144226074218	927.7193603515625	339.8759460449219	
236	1.958333333333333	271.2429809570312	1362.521362304688	131.0305938720703	276.2676391601562	1343.095458984375	-0.0505378544331081	212.0325927734375	1502.390869140625	125.4241790771484	212.9404907226562	1497.353881835938	-20.73602104187018	59.23346328735351	1487.15087890625	45.88921356201163	39.46289062499999	1351.847900390625	52.85806655883781	66.9150466918945	1433.032104492188	196.548843383789	99.28111267089845	1456.5810546875	-74.39090728759773	-122.0278091430664	1280.932006835938	31.44631004333487	-188.8642883300781	1510.144165039062	25.44358634948719	-441.9116821289062	1302.417236328125	94.70453643798814	-441.1173400878906	1292.9755859375	-19.10848236083998	-283.9403381347656	1215.727172851562	147.2259063720702	-285.9797058105469	1205.17822265625	-66.99986267089854	-68.36681365966798	811.1123657226562	125.6805343627929	-108.9968643188477	741.50537109375	-33.21413040161138	-66.27162170410159	873.2155151367188	230.2268829345703	-95.31859588623045	794.201904296875	-140.8594512939454	-121.6830062866211	357.4889221191406	-46.7902984619141	-331.1865844726562	538.6537475585938	125.8907089233398	-134.8090057373047	344.2674255371094	-135.5343475341797	-357.0155029296875	542.3323364257812	211.9718322753905	63.14378738403322	271.3666076660156	-94.237548828125	-249.0460662841797	354.8765258789062	183.7857513427734	-195.5227508544922	333.1329345703125	-100.0668869018555	-412.723388671875	563.3128662109375	170.7717132568359	81.15325164794919	1102.58154296875	226.9415740966796	97.74253845214845	1123.64208984375	-142.255355834961	124.2963256835937	1128.372802734375	272.6455078124999	160.2242431640625	1139.419921875	-161.1001739501953	321.1607360839843	937.0328369140625	249.7710266113281	279.9700012207031	903.4254150390625	303.0470275878906	316.2186584472656	929.8666381835938	-105.2433471679688	276.0933837890625	886.8812866210938	-155.7904815673828	370.9547424316406	914.487060546875	-194.5481414794922	369.4918212890624	927.6123046875	340.0299682617188	
237	1.966666666666667	271.4054260253906	1362.50244140625	132.9134674072265	276.3826904296875	1343.06201171875	1.85343122482295	212.4234313964843	1502.46240234375	127.2397003173828	213.3553161621094	1497.413696289062	-18.95698165893561	59.59041595458984	1487.397094726562	47.55680465698234	39.75895309448241	1352.139038085938	54.53170394897453	66.82456970214841	1433.099243164062	198.2077484130859	100.1095962524414	1456.716064453125	-72.60977935791023	-121.5995025634766	1281.184448242188	32.16192626953116	-188.4380035400391	1510.386352539062	25.48735618591297	-441.6033020019531	1302.765258789062	93.37532043457017	-440.1235046386719	1292.609619140625	-20.37899208068861	-283.780517578125	1216.572265625	147.210723876953	-284.9294738769531	1204.453857421875	-66.93179321289072	-61.78461074829103	820.4338989257812	125.9119567871093	-117.5518798828125	732.3778076171875	-32.99408340454107	-59.99403381347659	882.6160278320312	230.6923828124999	-103.5885238647461	785.0966796875	-140.7973937988282	-126.9253997802734	348.1724853515625	-46.71039199829105	-325.6661376953125	549.4338989257812	126.3285446166991	-140.5510101318359	334.9905090332031	-135.3439331054688	-351.5105285644531	553.1747436523438	212.5010833740234	57.11234664916994	260.0578918457031	-94.74184417724611	-242.7681121826172	366.3584594726562	184.3468627929687	-201.00634765625	324.4815063476562	-99.65582275390629	-407.4451599121094	573.9970703125	171.3251800537109	81.47728729248044	1102.76513671875	227.5204315185546	98.38855743408205	1123.864013671875	-141.6063842773438	124.5662078857422	1128.4306640625	273.3332824707031	160.9115905761719	1139.554321289062	-160.2221221923828	321.3033752441406	937.0034790039062	250.0200958251953	280.1535644531249	903.34521484375	303.3132019042969	316.5332336425781	929.7197875976562	-104.8875045776367	276.3193664550781	886.8544311523438	-155.5291595458985	371.1159057617188	914.5086669921875	-194.3406524658203	369.6676330566406	927.4774169921875	340.188720703125	
